<?xml version="1.0" standalone="no"?>
<!DOCTYPE svg PUBLIC "-//W3C//DTD SVG 20010904//EN"
 "http://www.w3.org/TR/2001/REC-SVG-20010904/DTD/svg10.dtd">
<svg version="1.0" xmlns="http://www.w3.org/2000/svg"
 width="330.000000pt" height="150.000000pt" viewBox="0 0 330.000000 150.000000"
 preserveAspectRatio="xMidYMid meet">

<g transform="translate(0.000000,150.000000) scale(0.100000,-0.100000)"
fill="#000000" stroke="none">
<path d="M250 1085 l0 -25 1370 0 1370 0 0 25 0 25 -1370 0 -1370 0 0 -25z"/>
<path d="M461 1039 c-125 -24 -212 -133 -211 -263 1 -123 77 -219 200 -252 42
-12 38 -13 -77 -13 l-123 -1 0 -25 0 -25 1370 0 1370 0 0 25 0 25 -1222 0
c-1200 1 -1222 1 -1170 19 61 21 123 76 155 136 25 48 30 161 8 213 l-13 32
-114 0 -114 0 0 -55 0 -55 81 0 81 0 -7 -37 c-16 -89 -76 -143 -157 -143 -57
0 -96 17 -131 60 -72 85 -29 224 79 252 l44 12 0 53 c0 29 -1 53 -2 52 -2 -1
-23 -5 -47 -10z"/>
<path d="M1057 956 c-46 -17 -64 -32 -83 -67 -33 -65 -6 -152 58 -185 91 -47
198 7 215 109 l6 37 -72 0 c-64 0 -71 -2 -71 -20 0 -17 7 -20 50 -20 29 0 50
-5 50 -11 0 -40 -56 -79 -114 -79 -25 0 -45 9 -68 29 -28 25 -33 36 -33 76 0
40 5 51 33 76 35 31 94 39 134 18 31 -17 46 5 17 24 -37 23 -80 28 -122 13z"/>
<path d="M1730 825 c0 -138 1 -145 20 -145 14 0 20 7 20 22 0 20 1 20 19 4 11
-10 36 -18 56 -19 79 -2 120 102 63 160 -31 30 -89 34 -119 7 -19 -17 -19 -16
-19 49 0 60 -2 67 -20 67 -19 0 -20 -7 -20 -145z m154 -1 c20 -20 21 -78 0
-94 -21 -18 -72 -17 -91 3 -20 19 -21 70 -3 91 16 21 74 20 94 0z"/>
<path d="M2800 825 c0 -122 2 -145 15 -145 13 0 15 23 15 145 0 122 -2 145
-15 145 -13 0 -15 -23 -15 -145z"/>
<path d="M2304 945 c-9 -23 10 -40 25 -22 9 11 8 17 -4 27 -12 10 -16 9 -21
-5z"/>
<path d="M1453 873 c-59 -11 -84 -108 -40 -158 28 -33 87 -37 118 -9 19 17 20
17 26 -4 3 -12 12 -22 19 -22 11 0 14 22 14 100 0 82 -3 100 -15 100 -8 0 -15
-9 -15 -20 0 -24 -8 -25 -29 -6 -20 17 -49 24 -78 19z m81 -55 c23 -32 20 -55
-10 -84 -19 -20 -31 -24 -52 -19 -78 18 -66 125 14 125 23 0 38 -7 48 -22z"/>
<path d="M2080 780 c0 -81 3 -100 15 -100 11 0 15 17 17 73 3 64 6 73 26 82
12 5 22 18 22 27 0 15 -4 16 -25 8 -16 -6 -25 -6 -25 0 0 6 -7 10 -15 10 -12
0 -15 -18 -15 -100z"/>
<path d="M2300 780 c0 -82 3 -100 15 -100 12 0 15 18 15 100 0 82 -3 100 -15
100 -12 0 -15 -18 -15 -100z"/>
<path d="M2553 873 c-31 -6 -73 -59 -73 -93 0 -36 41 -86 76 -93 34 -6 86 11
81 27 -2 6 -20 10 -45 8 -23 -2 -42 0 -42 5 0 5 23 31 50 58 28 27 50 52 50
56 0 6 -64 40 -72 38 -1 -1 -13 -4 -25 -6z m17 -78 c-43 -44 -60 -49 -60 -17
0 35 29 62 68 62 l36 0 -44 -45z"/>
</g>
</svg>
